<?xml version="1.0" encoding="UTF-8"?>
<svg id="Capa_1" data-name="Capa 1" xmlns="http://www.w3.org/2000/svg" viewBox="0 0 410.6 225.5">
  <defs>
    <style>
      .cls-1 {
        fill: #545454;
      }
    </style>
  </defs>
  <path class="cls-1" d="M172.28,95.91c-5.52,7.41-9.86,14.45-16.37,21.51-.59,2.08-2.84,2.12-6.5,6.48-7.64,7.71-12.5,10.37-20.81,17.52-4.08-1.04-1.43-4.13-3.9-6,1.73-2.99,3.02-5.58,4.37-9.55.27.34,1.8,3.17,2.13,3.55-1.32,2.42-6.13,10.15-.67,6.99,11.46-9.98,21-22.29,25.83-30.61,1.24-2.13,9.49-15.61,10.91-18.41,1.51-1.23-1.53,5.76,1.64,8.03-.6-1.71,3.43-3.9,3.25-4.59,1.78-1.09,1.03,2.66.12,5.08Z"/>
  <path class="cls-1" d="M44.93,158.56c-4.52,5.74-15.63,18.32-22.89,25.52-4.83,4.79-14.43,7.93-18.98,5.38-7.33-4.11-.17-24.54,7.88-29.03,1.99-.24,2.25-.04,1.95,1.5-.58,2.97-19.26,32.79,1.17,23.9,8.96-3.9,23.16-21.31,28.72-28.41l2.16,1.14Z"/>
  <path class="cls-1" d="M338.65,114.6c5.95-1.5,9.38-11.31,11.89-13.99,2.65-2.82,5.01-3.65,5.6-3.73,1.5-.21,4.89.65,7.14.58,2.69-.08,7.34-2.28,9.23-.1,3.38,3.88-6.36,13.11-4.27,17.71-8.79-1.27,4.22-15.82.29-15.66-8.58-.09-13.07,12.31-15.16,14.82-.84,1.01-2.54,1.2-2.42-.43.29-3.72,6.59-7.62,5.22-12.38-3.01-2.68-8.49,7.64-8.95,8.25-.94,1.27-1.78,2.55-2.49,3.35-.57.17-5.79,1.52-6.1,1.57Z"/>
  <path class="cls-1" d="M178.02,119.42c.37,1.26-2.65,1.5.66,3.02,5.04,2.3,14.01-12.16,20.39-15.28,3.25-1.59,4.74,1.04,14.62-.78,13.07-2.4-5.59,16.37-2.39,15.72l12.23-2.68c-.72,4.8-16.15,6.35-17.52,4.5-3.17-2.21,7.45-9,8.41-14.5-3.08-1.4-6.83.46-8.23,3.46-1.46,1.14-.22-.61-2.18-1.15-1.71-3.6-5.68-1.34-6.73-.6-7.87,5.55-13.04,18.28-24.47,12.29-1.73-1.57,3.14-4.96,5.2-4Z"/>
  <path class="cls-1" d="M307.51,33.42c-2.99,5.79-8.38,25.49-10.44,31.79-3.44,10.49-8.65,22.53-12.5,32.95-2.23,2.87,10.81-4.28,3.99,1.17-1.15.92-15.2,11.51-17.33,11.48,1.43-2.54,9.59-7.52,10.74-12.72.26-1.16,2.25-4.07,1.4-5,5.07-10.44,10.67-28.31,13.67-39.45.83-3.08,4.73-10.97.64-9.64,1.8.33,8.08-9.63,9.84-10.58Z"/>
  <path class="cls-1" d="M390,137.42c-27.3,16.71-52.84,21.92-87.13,25-1.14-.28-1.12-.62,0-1,27.76-2.1,64.42-12.13,85.83-26,3.39-1.09,3.88.11,1.3,2Z"/>
  <path class="cls-1" d="M390,137.42l-1.3-2c13.49-8.74,29.68-31.69,10.4-37-2.6-.68-5.31-.73-5.2-2,11.38-1.19,17.15,3.59,16.67,12.38-.62,11.4-9.97,22.12-20.58,28.62Z"/>
  <path class="cls-1" d="M224.39,160.46c7.7-.05,19,1.4,25.54,1.4l23.69.55c7.49,0,21.57-.42,29.26-1v1c-30.86,2.77-55.1.58-85.83,0-1.48-2.26,4.88-1.86,7.35-1.95Z"/>
  <path class="cls-1" d="M49.28,194.42c-11.6,6.11-23.82,19.17-35.09,26.51-1.19.78-8.22,5.24-9.11,4.48,1.58-3.02,5.2-5.52,8.48-7.97,11.2-8.35,20.66-16.71,33.13-24.03,2.15-.74,3.37-1.03,2.6,1Z"/>
  <path class="cls-1" d="M231.3,162.42c-2.85.02-12.49-1.74-14.26,0-18.03-.34-39.41-.85-57.22,0-1.14-.28-1.12-.62,0-1,19.72-.97,39.28-1.18,59.19-1.02,2.2.02,10.94.36,12.29,2.02Z"/>
  <path class="cls-1" d="M159.82,161.42v1c-6.62.32-27.61,3.62-32.55,4.68-5.65,1.21-7.73,1.88-15.05,3.75-3.06.78-13.63,4.53-15.03,2.62,13.22-3.8,25.77-7.03,28.27-7.55,15.23-3.16,27.86-4.5,34.36-4.5Z"/>
  <path class="cls-1" d="M338.61,109.29c-4.84,10.78,6.39,1.67,5.24,2.6-5.77,4.65-9.72,4.37-9.72,4.37-1.04-.07-4.75-.47-7.13-1.91.22-.11.3-.06.73-.26.71-.32,1.52-.74,1.57-.76.64-.26,2.6-1.49,4.46-3.2,3.44-3.16,3.99-6.16,3.2-7.49-.49-.83-2.82-3.21-5.97-2.96-.75.06-.43-.87,2.39-.98-.91.04,10.13-.34,5.23,10.59Z"/>
  <path class="cls-1" d="M128.6,122.42c4.33-2.08,13.27-16.71,16.9-13.99,1.21.91-3.19,6.15-4.13,7.32-2.33,2.89-13.22,19.62-15.34,22.86l3.73-13.59-1.17-2.59Z"/>
  <path class="cls-1" d="M393.9,96.42c1.57.91,4.57,1.6,6.28,2.33-2.22-.95-6.25-.16-8.1.39-3.19,1.29-4.39,3.55-9.49,10.13-1,1.3-1.79,2.07-2.66,2.86-4.57,4.15-5.93,2.99-6.08,2.93,4.93-3.7,6.22-5.73,6.42-5.99,1.13-1.49,2.5-3.42,2.54-3.49.29-.58,1.81-2.67,1.81-2.68,3.76-5.46,6.23-5.8,9.28-6.47Z"/>
  <path class="cls-1" d="M166.32,124.42c2.69-1.75,5.3-3.33,7.8-5.5,4.12-3.59,5.23-11.64,11.7-10-2.99,3.39-4.44,7.26-7.79,10.51-.26.25-4.91,3.83-5.2,4-1.84,1.06-3.02,1.48-5.2,2-1.45.18-1.9.09-1.3-1Z"/>
  <path class="cls-1" d="M46.67,193.42c6.86-4.03,17.04-9.41,30.03-12.55-8.22,3.16-20.85,10.09-27.43,13.55l-2.6-1Z"/>
  <path class="cls-1" d="M206.63,111.42c.47,2.56-10.95,13.08-12.36,12.97-1.99-.15-1.57-1.45-.89-2.64.8-1.41,6.48-7.72,8.05-9.33,3.82-3.92,3.49-.94,5.2-1Z"/>
  <path class="cls-1" d="M166.32,124.42c.24.02.8.81,1.3,1-4,.96-8.41,2-10.78.78-3.86-1.98-.92-8.78-7.42-3.78,4.12-6.62,6.07-7.55,6.5-5,.66,6.72,3.39,6.37,10.4,7Z"/>
  <path class="cls-1" d="M298.74,44.56c-5.15.09-9.06-2.36-9.94-5.76-.48-1.84-1.22-10.88,1.06-9.38-.34,4.25-.46,12.24,4.55,12.56l4.33,2.58Z"/>
  <path class="cls-1" d="M304.17,90.42c-3.01,2.72,1.14,1.59,1.41,2.56.41,1.47-.34,1.77-.72,1.79-1.24.05-9.92,3.65-8.82,1.46,0,0,1.89-1.24,1.88-1.24,5.05-3.61,6.84-5.09,6.25-4.57Z"/>
  <path class="cls-1" d="M334.22,30.02c-8.41,14.56-14.61,33.46-22.24,48.4,1.63.99,3.36,1.66,5.2,2,8.3-11.22,26.76-39.54,28.63-51.54,1.6-10.29-5.93-8.65-11.58,1.15ZM332.56,51.91c-2.31,4.79-4.37,7.83-6.18,10.96-.63,1.08-9.62,15.34-11.33,15.38.5-4.53,9.65-22.83,11.61-27.03,2.31-4.95,8.42-16.82,11.4-21.23.95-1.41,4.11-5.27,4.99-2.96,1.44,5.73-8.92,21.61-10.5,24.89Z"/>
  <path class="cls-1" d="M124.7,135.42c-6.58,11.41-10.04,15.26-20.82,24.49-8.68,7.44-13.98,11.86-22.14,19.98-2.19,2.18-5.5,4.93-4.99,7.92.67,3.91,7.5,2.9,10.15,2.29,1.89-1.32-1.35-1.68-3.82-1.69-2.02-.13-2.83-1.25-1.68-3.09.59-.94,7.46-8.26,8.92-9.84,2.86-3.11,15.56-15.17,19.45-16.05,5.06-1.15-4.53,9.98-5.41,11.06-.53.65-.93,1.21-1.73,1.43-1.82.51-3.64,1.04-5.25,1.5-.88.66-.51,1.25,1.09,1.75,1.23-.42,2.35-.77,2.87-.78.5,0-.74,1.67-1.3,2.44-.1,1.82.52,3.03,2.23,1.5,2.38-2.64,3.14-4.32,5.42-7.12,1.21-1.75,2.68-3.47,3.43-4.73l2.18-3.84c4.74-9.5,6.22-13.41,15.29-21.21.83-2.47-.61-6.89-3.9-6Z"/>
  <path class="cls-1" d="M198.95,27.43l-.13,2.32c.75.04,1.36.24,1.84.56,1.89-1.8,3.61-2.4,4.13.51-6.5,15.22-19.35,37.35-27.15,51-.2.35-1.81,3.13-2.55,4.12-.53.7-2.72,3.62-4.61,5.79-.09.17-1.07.96-1.16,1.13-.58,1.11,1.73-1.25,2.7-.29l.26,3.34c10.12-16.74,27.56-45.06,34.94-62.77,4.69-11.26-.49-13.37-8.27-5.71Z"/>
  <path class="cls-1" d="M287.01,98.31c-6.9,4.53-2.09-6.96-3.65-5.22-5.71,11.76-13.51,12.68-20.07,21.24-1.37,1.78-5.08,8.1-1.2,9.64,5.66,2.23,11.07-4.97,13.65-9.08,2.92-4.65,3.76-7.61,6.32-12.17,1.68-.87,6.51-5.43,4.95-4.41ZM265.76,121.45c-4.55,1.41.85-10.75,8.49-11.03,1.28,1.01-4.77,9.83-8.49,11.03Z"/>
  <path class="cls-1" d="M315.01,13.42c-5.48,2.44-7.77,12.68-8.79,15.04-2.25,5.22-3.96,12.05-7.85,13.11-1.68.46-3.96.4-3.96.4-2.03-.02-3.09-.49-3.93-.82-.54.36,1.56,1.02,2.11,1.33,2.71,1.53.94,1.19,5.2,2,3.35.27,4.68.04,5.16-.2,0,.06.02.12.04.2,8.25-4.44,9.31-6.86,12.02-10.26,3.89-4.89,17.36-28.53,0-20.8ZM310.83,34.63c-.63.77-2,2.29-3.41,3.08-.18.1-.44-.13-.65-.3-.87-.72,4.09-13.49,4.09-13.49.87-2.41,2.62-4.57,3.14-5.31.48-.68,2.53-2.74,3.92-3.34,1.07-.46,2.27-.28,2.47.95.7,3.28-3.17,10.54-9.57,18.41Z"/>
  <ellipse class="cls-1" cx="187.47" cy="103.29" rx="2.24" ry="1.72"/>
  <g>
    <path class="cls-1" d="M336.68,109.42l-1.92.1c-1.09,2.74.16.56-4.65,3.38-1.29,1.22-16.79,6.77-9.76-2.53.67-.89,10.83-11.25,3.9-8.35-4.94,2.06-11.21,16.41-16.82,16.45-4.3.03-3.3-4.34-3.1-6.41,1.06-11.27,6.03-22.42,12.85-31.64-.05-1.33-.55-2.23-1.35-2.64-.33.29-.6.47-.78.47.02-.2.07-.44.12-.69-.87-.15-1.97.12-3.2.86-1.49,2.91-5.29,9.98-7.8,12-1.61,1.4-3.31,2.13.39,4.26-1.44,4.81-5.44,16.04-5.5,20.37-.08,5.33,6,7.04,10.69,5.17,2.16-.86,4.49-3.34,5.65-2.52,3.01,2.13,13.16.77,17.08-2.25-.31-.08-.6-.18-.85-.33l5.05-5.7Z"/>
    <path class="cls-1" d="M344.1,111.09c-.56,1.12-3.21,2.72-6.03,3.69,2.63.17,5.55.09,6.68-1.75-1.24-.46.71-3.06-.65-1.94Z"/>
    <path class="cls-1" d="M333.25,114.75c-.22.24-.48.47-.77.69,1.48.38,3.57.03,5.58-.66-2.31-.15-4.39-.5-4.81-.03Z"/>
  </g>
  <path class="cls-1" d="M168.49,92.3c-.5-2.43,3.1-8.92,4.61-11.7.13-.23.25-.47.37-.7l.2-.67-3.85,2.31c-1.92,3.67-4.33,10.38-6.11,13.88h1.78c1.83,3.27,1.1,1.96,3.42,0,1.3-2.71,6.65-7.94,7.95-10.49l-5.49,5.76c-1.09,1.26-2.78,2.16-2.9,1.62Z"/>
  <path class="cls-1" d="M171.99,82.66c.37-.7.75-1.4,1.12-2.06,7.11-13.06,11.85-25.67,21.41-42.03.5-.85,5.23-8.63,8.15-9.65-1.18-.42-3.16-.52-3.7-1.5-10.63,15.44-20.81,35.52-28.5,52.7,0,0-.16.3-.17.32-.22.47-.89,1.72-.95,2.2-1.16,2.61-1.54,3.51-2.57,5.94,1.69,2,2.86-3.05,3.4-6.39.23.54.79.81,1.82.46Z"/>
  <g>
    <path class="cls-1" d="M99.95,177.02c-3.52,5.3-8.41,11.57-16.79,11.51.36.64.89,1.24,1.23,1.89,5.66-.27,9.59-3.22,13.04-6.47,3.21-3.03,4.74-5.33,6.54-7.89l-2.66-1.07c-.28.59-1,1.55-1.35,2.04Z"/>
    <path class="cls-1" d="M93.47,176.53c.59.47,4.9-1.34,7-1.88l-2.92-1.17c-.06.02-.13.04-.19.05-.5.14-6.21,1.17-3.89,3Z"/>
  </g>
  <path class="cls-1" d="M136.91,4.03c-2.11,2.28-4.13,5.4-5.01,6.75-.97,1.37-2.9,4.27-3.78,5.71-.05.08-1.68,2.87-2.65,4.79-1.11,2.21-.82,1.42-4.45,8.2-1.11,2.53-2.19,4.6-4.13,8.57.83-1.45,1.54-2.01,1.73-2.15.27-.2.65-.71,1.46-.74.71-1.57,1.41-3.02,2.09-4.37,1.64-4.91,10.23-17.57,11.4-19.07.96-1.24,2.96-4.16,2.96-4.16,0,0,2.36-3.37,3.3-2.83-.75,3.37-4.04,9.78-5.82,12.49-2.65,4.97-7.17,11.64-11.7,18.18,1.11.31,1.81.94,1.07,2.03,6.69-11.02,16.83-22.2,19.58-34.91,1.11-5.14-3.56-1.22-6.07,1.52Z"/>
  <path class="cls-1" d="M128.6,122.42c-7.63,3.66-12.82,2.61-8.06-4.7.47-.73,9.5-9.42,2.23-8.29-1.11.17-9.39,12.12-12.38,14.5-6,4.42-9.16,6.53-14.29,5.49,3.68-6.06,3.3-12.06,4.17-18.18.03-1.97.11-3.74.35-5.12.17-21.44,11.7-50.4,23.45-69.76.75-2.15,1.41-3.85,1.48-5.56-2.34,3.39-5.66,7.47-7.8,10.6,2.15-5.56,4.4-10.89,6.29-14.59-1-.98-2.78,1.92-5.34,8.14-11.12,19.32-24.72,42.5-36.33,61.42-3.85,6.27-7.23,12.76-11.03,19.05-8.13-1.97-15.95-3.74-24.65-2.98-1.23,5.46,9.51,9.84,17.92,13.9-1.76,3.18-3.87,5.38-5.52,8.13-3.94,6.59-11.36,16.64-16.31,22.96q-.99,2.41-1.63,5.75c1.31-1.65,2.28-2.71,3.79-4.6,6.52-8.19,14.93-19.03,20.24-27.45.74-1.18,2.4-3.55,2.58-3.68.65-.47,9.27,2.08,11.57,1.22-3.43-3.2-12.06-3.67-8.4-7.17-1.15-.53-2.54-1.1-2.69-.93-.71.8-1.72,2.02-3.02,1.7-3.04-.73-5.98-1.82-8.96-3.48-.8-.45-7.26-4.37-.9-4.21,4.9.12,16,3.58,19.78,5.47,8.93,4.45,11.7,13.61,25.15,12.2,8.19-.86,11.09-9.12,14.75-6.78,2.52,1.61,5.46,1.54,7.56,1.39,1.51-.11,4.75-2.09,5.99-1.42.17.09.61,2.1,1.32,3-1.13,1.82-.42,2.41,1.3,1,.9-1.65,1.85-3.31,2-3.55.14-1.6-1.86-3.05-4.6-3.45ZM90.33,127.38c-1.11-.19-15.66-10.75-13.74-13.36l21.61-37.49,8.05-12.38c-.6,7.02-4.35,17.06-4.67,18.36-1.68,6.85-3.02,12.19-4.17,19.41-.59,3.72.06,26.68-7.08,25.45Z"/>
</svg>